<?xml version="1.0" encoding="utf-8"?>
<!-- Generator: Adobe Illustrator 19.0.1, SVG Export Plug-In . SVG Version: 6.00 Build 0)  -->
<svg version="1.1" id="Capa_1" xmlns="http://www.w3.org/2000/svg" xmlns:xlink="http://www.w3.org/1999/xlink" x="0px" y="0px"
	 viewBox="20 -20.3 340.3 340.3" style="enable-background:new 20 -20.3 340.3 340.3;" xml:space="preserve">
<style type="text/css">
	.st0{fill:#808080;}
</style>
<g>
	<g>
		<g>
			<path class="st0" d="M313.6,107.5l-5.8-13.7c19.8-44.9,18.5-46.2,14.7-50.1l-25.4-24.8l-2.5-2.1h-2.9c-1.5,0-6.2,0-44.7,17.5
				l-14.2-5.7c-18.3-45.4-20.2-45.4-25.6-45.4h-35.8c-5.4,0-7.4,0-24.4,45.6l-14.1,5.7c-26-11-41.3-16.6-45.4-16.6L84.1,18
				L56.8,44.8c-4.1,3.9-5.6,5.3,15.4,49.4l-5.8,13.7C20,125.8,20,127.6,20,133.1v35.1c0,5.5,0,7.4,46.6,24.1l5.8,13.7
				c-19.8,44.8-18.5,46.2-14.7,50l25.4,24.8l2.5,2.2h3c1.5,0,6.1,0,44.7-17.5l14.2,5.8c18.3,45.4,20.2,45.4,25.6,45.4h35.8
				c5.5,0,7.4,0,24.5-45.6l14.2-5.7c26,11,41.3,16.6,45.3,16.6l3.4-0.1l27.5-26.9c3.9-3.9,5.3-5.3-15.6-49.3l5.7-13.7
				c46.5-18,46.5-19.9,46.5-25.2v-35C360.3,126.1,360.3,124.2,313.6,107.5z M190.1,208.2c-32.8,0-59.5-26.2-59.5-58.4
				c0-32.2,26.7-58.3,59.5-58.3c32.8,0,59.4,26.2,59.4,58.3C249.6,182,222.9,208.2,190.1,208.2z"/>
		</g>
	</g>
</g>
</svg>
