
<svg version="1.1" xmlns="http://www.w3.org/2000/svg" xmlns:xlink="http://www.w3.org/1999/xlink" x="0px" y="0px" viewBox="0 0 1000 1000" xml:space="preserve">

<g><path d="M972,289.4c-24.1-24.1-63.1-24.1-87.1,0L739.6,434.7L565.4,260.4l145.2-145.2c24.1-24.1,24.1-63.1,0-87.1S647.5,4,623.4,28L478.2,173.3l-87.1-87.1L267.7,209.5c-128,128-138.9,328.3-33.4,469.1L28,884.8C4,908.9,4,947.9,28,972s63.1,24.1,87.1,0l206.2-206.2c140.8,105.4,341.1,94.6,469.1-33.4l123.4-123.4l-87.1-87.1l145.2-145.2C996,352.5,996,313.5,972,289.4z"/></g>
</svg>